<svg xmlns="http://www.w3.org/2000/svg" width="32" height="32" viewBox="0 0 32 32">
  <path id="_317712_code_repository_github_repository_resource_icon" data-name="317712_code repository_github_repository_resource_icon" d="M16.007,0a16.206,16.206,0,0,0-16,16.405A16.376,16.376,0,0,0,10.951,31.971c.8.15,1.052-.336,1.052-.771,0-.39.008-1.479,0-2.848-4.45.992-5.372-2.161-5.372-2.161a4.317,4.317,0,0,0-1.775-2.4c-1.452-1.017.109-1,.109-1a3.374,3.374,0,0,1,2.452,1.691,3.361,3.361,0,0,0,4.655,1.363,3.544,3.544,0,0,1,1.017-2.194C9.535,23.24,5.8,21.833,5.8,15.547a6.428,6.428,0,0,1,1.646-4.4A6.027,6.027,0,0,1,7.6,6.8S8.947,6.362,12,8.486a14.819,14.819,0,0,1,8.012,0c3.056-2.123,4.4-1.683,4.4-1.683a6.038,6.038,0,0,1,.159,4.342,6.427,6.427,0,0,1,1.644,4.4c0,6.3-3.741,7.689-7.306,8.094A3.931,3.931,0,0,1,20,26.663V31.2c0,.439.258.924,1.07.765A16.378,16.378,0,0,0,32.008,16.405,16.207,16.207,0,0,0,16.007,0Z" transform="translate(-0.008)" fill="#39577b" fill-rule="evenodd"/>
</svg>