<svg xmlns="http://www.w3.org/2000/svg" width="32" height="32" viewBox="0 0 32 32">
  <g id="Flat_copy" transform="translate(-0.005 0.011)">
    <g id="Group_4" data-name="Group 4">
      <g id="Group_3" data-name="Group 3">
        <path id="Path_5" data-name="Path 5" d="M16,31.614A15.625,15.625,0,1,1,31.63,15.989,15.644,15.644,0,0,1,16,31.614Z" fill="#39577b"/>
        <path id="Path_6" data-name="Path 6" d="M16,.739A15.25,15.25,0,1,1,.755,15.989,15.267,15.267,0,0,1,16,.739m0-.75a16,16,0,1,0,16,16,16,16,0,0,0-16-16Z" fill="#39577b"/>
      </g>
    </g>
    <path id="Path_7" data-name="Path 7" d="M24.3,22.932V16.795c0-3.288-1.755-4.818-4.1-4.818A3.529,3.529,0,0,0,17,13.745V12.228H13.439c.047,1.005,0,10.7,0,10.7H17V16.954a2.431,2.431,0,0,1,.117-.867,1.947,1.947,0,0,1,1.825-1.3c1.288,0,1.8.981,1.8,2.42v5.727ZM9.69,10.767a1.855,1.855,0,1,0,.023-3.7,1.854,1.854,0,1,0-.045,3.7H9.69Zm1.779,12.165v-10.7H7.912v10.7Z" fill="#FFF"/>
  </g>
</svg>